# AST/ASF file generated using VICON BodyLanguage
# -----------------------------------------------
:version 1.10
:name VICON
:units
  mass 1.0
  length 0.45
  angle deg
:documentation
   .ast/.asf automatically generated from VICON data using
   VICON BodyBuilder and BodyLanguage model FoxedUp or BRILLIANT.MOD
:root
   order TX TY TZ RX RY RZ
   axis XYZ
   position 0 0 0  
   orientation 0 0 0 
:bonedata
  begin
     id 1 
     name lhipjoint
     direction 0.623529 -0.717805 0.309788 
     length 2.23224 
     axis 0 0 0  XYZ
  end
  begin
     id 2 
     name lfemur
     direction 0.34202 -0.939693 0  
     length 7.11402  
     axis 0 0 20  XYZ
    dof rx ry rz
    limits (-160.0 20.0)
           (-70.0 70.0)
           (-60.0 70.0)
  end
  begin
     id 3 
     name ltibia
     direction 0.34202 -0.939693 0   
     length 6.78496   
     axis 0 0 20   XYZ
    dof rx
    limits (-10.0 170.0)
  end
  begin
     id 4 
     name lfoot
     direction 0.125078 -0.343648 0.930732   
     length 1.84054   
     axis -90 7.62852e-016 20   XYZ
    dof rx rz
    limits (-45.0 90.0)
           (-70.0 20.0)
  end
  begin
     id 5 
     name ltoes
     direction 1.53565e-011 -4.21893e-011 1   
     length 0.916474   
     axis -90 7.62852e-016 20   XYZ
    dof rx
    limits (-90.0 20.0)
  end
  begin
     id 6 
     name rhipjoint
     direction -0.564688 -0.757748 0.327026   
     length 2.11457  
     axis 0 0 0  XYZ 
  end
  begin
     id 7 
     name rfemur
     direction -0.34202 -0.939693 0   
     length 7.14609   
     axis 0 0 -20   XYZ
    dof rx ry rz
    limits (-160.0 20.0)
           (-70.0 70.0)
           (-70.0 60.0)
  end
  begin
     id 8 
     name rtibia
     direction -0.34202 -0.939693 0   
     length 6.78101   
     axis 0 0 -20   XYZ
    dof rx
    limits (-10.0 170.0)
 end
 begin
     id 9 
     name rfoot
     direction -0.0992671 -0.272734 0.956955   
     length 1.96168  
     axis -90 -7.62852e-016 -20   XYZ
    dof rx rz
    limits (-45.0 90.0)
           (-20.0 70.0)
  end
  begin
     id 10 
     name rtoes
     direction -1.5356e-011 -4.21891e-011 1   
     length 0.982933   
     axis -90 -7.62852e-016 -20   XYZ
    dof rx
    limits (-90.0 20.0)
  end
  begin
     id 11 
     name lowerback
     direction -0.00596953 0.998668 0.0512524   
     length 1.87557   
     axis 0 0 0   XYZ
    dof rx ry rz
    limits (-20.0 45.0)
           (-30.0 30.0)
           (-30.0 30.0)
  end
  begin
     id 12 
     name upperback
     direction 0.00584879 0.999652 0.0257308   
     length 1.87883   
     axis 0 0 0   XYZ
    dof rx ry rz
    limits (-20.0 45.0)
           (-30.0 30.0)
           (-30.0 30.0)
  end
  begin
     id 13 
     name thorax
     direction 0.010104 0.999947 0.00178881   
     length 1.87779   
     axis 0 0 0   XYZ
    dof rx ry rz
    limits (-20.0 45.0)
           (-30.0 30.0)
           (-30.0 30.0)
  end
  begin
     id 14 
     name lowerneck
     direction 0.0120771 0.995934 -0.0892773   
     length 1.40897   
     axis 0 0 0   XYZ
    dof rx ry rz
    limits (-20.0 45.0)
           (-30.0 30.0)
           (-30.0 30.0)
  end
  begin
     id 15 
     name upperneck
     direction -0.030568 0.999465 -0.0116366   
     length 1.38661   
     axis 0 0 0   XYZ
    dof rx ry rz
    limits (-20.0 45.0)
           (-30.0 30.0)
           (-30.0 30.0)
  end
  begin
     id 16
     name head
     direction -0.0170715 0.999854 -0.00104426  
     length 1.47052  
     axis 0 0 0   XYZ
    dof rx ry rz
    limits (-20.0 45.0)
           (-30.0 30.0)
           (-30.0 30.0)
  end
  begin
     id 17 
     name lclavicle
     direction 0.977763 0.206143 0.038532  
     length 3.02424  
     axis 0 0 0   XYZ
    dof ry rz
    limits (-20.0 10.0)
           (0.0 20.0)
  end
  begin
     id 18 
     name lhumerus
     direction 1 -4.48965e-011 -2.62654e-027   
     length 4.68382   
     axis 180 -30 -90   XYZ
    dof rx ry rz
    limits (-60.0 90.0)
           (-90.0 90.0)
           (-90.0 90.0)
  end
  begin
     id 19
     name lradius
     direction 1 -4.48973e-011 -1.54954e-027   
     length 2.98124   
     axis 180 -30 -90   XYZ
    dof rx
    limits (-10.0 170.0)
  end
  begin
     id 20
     name lwrist
     direction 1 -4.48959e-011 7.20928e-028   
     length 1.49062   
     axis -5.52449e-016 90 90   XYZ
    dof ry
    limits (-180.0 0.0)
 end
  begin
     id 21 
     name lhand
     direction 1 -4.48971e-011 1.44186e-027   
     length 0.707595   
     axis -9.20027e-016 90 90   XYZ
    dof rx rz
    limits (-90.0 90.0)
           (-45.0 45.0)
  end
  begin
     id 22 
     name lfingers
     direction 1 -4.48985e-011 2.88371e-027   
     length 0.570481   
     axis -1.84005e-015 90 90   XYZ
    dof rx
    limits (0.0 90.0)
  end
  begin
     id 23
     name lthumb
     direction 0.707107 -6.34929e-011 0.707107   
     length 0.819101   
     axis -90 45 2.85299e-015   XYZ
    dof rx rz
    limits (-45.0 45.0)
           (-45.0 45.0)
  end
  begin
     id 24 
     name rclavicle
     direction -0.958661 0.284411 -0.00895327   
     length 3.11921  
     axis 0 0 0   XYZ 
    dof ry rz
    limits (-10.0 20.0)
           (-20.0 0.0)
  end
  begin
     id 25 
     name rhumerus
     direction -1 -4.48963e-011 -4.22193e-027  
     length 4.75876   
     axis 180 30 90   XYZ
    dof rx ry rz
    limits (-90.0 60.0)
           (-90.0 90.0)
           (-90.0 90.0)
  end
  begin
     id 26 
     name rradius
     direction -1 -4.48968e-011 -1.07616e-027   
     length 2.93293   
     axis 180 30 90   XYZ
    dof rx
    limits (-10.0 170.0)
  end
  begin
     id 27 
     name rwrist
     direction -1 -4.48965e-011 7.20928e-028   
     length 1.46647   
     axis -5.52449e-016 -90 -90   XYZ
    dof ry
    limits (-180.0 0.0)
  end
  begin
     id 28
     name rhand
     direction -1 -4.48971e-011 1.44186e-027   
     length 0.831748   
     axis -9.20027e-016 -90 -90   XYZ
    dof rx rz
    limits (-90.0 90.0)
           (-45.0 45.0)
  end
  begin
     id 29
     name rfingers
     direction -1 -4.48961e-011 2.88371e-027   
     length 0.670577   
     axis -1.84005e-015 -90 -90   XYZ
    dof rx
    limits (0.0 90.0)
  end
  begin
     id 30
     name rthumb
     direction -0.707107 -6.34929e-011 0.707107   
     length 0.962818   
     axis -90 -45 -2.85299e-015   XYZ
    dof rx rz
    limits (-45.0 45.0)
           (-45.0 45.0)
  end
:hierarchy
  begin
    root lhipjoint rhipjoint lowerback
    lhipjoint lfemur
    lfemur ltibia
    ltibia lfoot
    lfoot ltoes
    rhipjoint rfemur
    rfemur rtibia
    rtibia rfoot
    rfoot rtoes
    lowerback upperback
    upperback thorax
    thorax lowerneck lclavicle rclavicle
    lowerneck upperneck
    upperneck head
    lclavicle lhumerus
    lhumerus lradius
    lradius lwrist
    lwrist lhand lthumb
    lhand lfingers
    rclavicle rhumerus
    rhumerus rradius
    rradius rwrist
    rwrist rhand rthumb
    rhand rfingers
  end

#!OML:ASF E:\id_vita\Project 1\Capture day 1\Session 1\Female.ASF
:FULLY-SPECIFIED
:DEGREES
302
root 27.7569 15.4181 1.4756 -85.4989 -83.435 101.329
lowerback -1.7572 -1.03328 -8.95611
upperback -3.91283 -1.48735 -0.233364
thorax -2.8804 -0.526768 4.78731
lowerneck -0.715504 1.78458 -0.863618
upperneck 4.24148 2.31431 1.61501
head 1.39716 1.15888 0.675713
rclavicle 8.4732e-015 1.19271e-015
rhumerus -52.8459 -16.9159 -68.2615
rradius 36.405
rwrist 1.9844
rhand -20.5016 5.67943
rfingers 7.12502
rthumb 5.8556 -24.2197
lclavicle 8.4732e-015 1.19271e-015
lhumerus -30.3802 17.4854 77.5022
lradius 27.6446
lwrist -24.3401
lhand -5.32374 23.4487
lfingers 7.12502
lthumb 20.4823 52.3883
rfemur -47.778 14.9703 -7.7475
rtibia 7.9164
rfoot -3.25721 -32.5699
rtoes -6.94363
lfemur -21.1689 -0.0214013 -30.3422
ltibia 49.9026
lfoot -25.5177 20.1947
ltoes -16.2489
303
root 27.874 15.3863 1.50876 -83.1877 -83.3603 99.2694
lowerback -1.55915 -1.02377 -8.83326
upperback -3.90111 -1.49302 -0.249907
thorax -2.98068 -0.528487 4.70527
lowerneck -0.497757 1.68176 -1.00733
upperneck 3.51834 2.19198 1.6168
head 1.13214 1.09666 0.688418
rclavicle -2.08724e-015 4.96962e-015
rhumerus -54.142 -18.505 -67.2054
rradius 34.4859
rwrist 2.74983
rhand -19.3566 5.64105
rfingers 7.12502
rthumb 6.96092 -24.2245
lclavicle -2.08724e-015 4.96962e-015
lhumerus -32.0046 19.5548 76.442
lradius 25.7377
lwrist -26.285
lhand -4.89564 23.0123
lfingers 7.12502
lthumb 20.8937 51.9071
rfemur -48.6151 14.9639 -8.48437
rtibia 8.5711
rfoot -3.4673 -32.6976
rtoes -6.50294
lfemur -22.1795 -0.367098 -30.7104
ltibia 50.4781
lfoot -25.5569 21.1467
ltoes -15.678
304
root 27.9951 15.3624 1.5422 -81.1834 -83.3378 97.5027
lowerback -1.30401 -0.99354 -8.65271
upperback -3.7823 -1.46692 -0.274827
thorax -3.00591 -0.521262 4.58191
lowerneck -0.923237 1.5735 -0.89367
upperneck 3.0428 2.06475 1.4399
head 1.06 1.03586 0.614008
rclavicle 1.11319e-014 3.04141e-014
rhumerus -55.2657 -19.9079 -66.3455
rradius 32.8066
rwrist 3.59918
rhand -18.1044 5.3187
rfingers 7.12502
rthumb 8.16957 -24.5034
lclavicle 1.11319e-014 3.04141e-014
lhumerus -33.4408 21.6704 75.2209
lradius 23.9302
lwrist -28.3702
lhand -4.32259 23.2216
lfingers 7.12502
lthumb 21.4442 52.0548
rfemur -49.5385 14.975 -9.18222
rtibia 9.35761
rfoot -3.02351 -32.3636
rtoes -6.35986
lfemur -23.2032 -0.697627 -30.9912
ltibia 50.965
lfoot -25.6562 22.1931
ltoes -15.2289
305
root 28.0945 15.346 1.57868 -80.7157 -83.3705 97.2719
lowerback -1.42497 -0.930602 -8.35426
upperback -3.61621 -1.35699 -0.323051
thorax -2.78257 -0.487972 4.3594
lowerneck -1.18027 1.47599 -0.811778
upperneck 2.41402 1.94747 1.34638
head 0.910438 0.979141 0.56753
rclavicle 5.66536e-015 -1.70955e-014
rhumerus -56.4653 -21.2147 -65.4317
rradius 31.2583
rwrist 4.70467
rhand -16.7716 5.04772
rfingers 7.12502
rthumb 9.45568 -24.7201
lclavicle 5.66536e-015 -1.70955e-014
lhumerus -35.1815 23.8854 73.6506
lradius 22.3581
lwrist -30.7047
lhand -3.44256 24.263
lfingers 7.12502
lthumb 22.2892 52.9975
rfemur -50.6665 15.1217 -9.86733
rtibia 10.6298
rfoot -2.77921 -32.1952
rtoes -6.50217
lfemur -24.0206 -0.89477 -31.2405
ltibia 51.296
lfoot -24.7769 23.8165
ltoes -10.2744
306
root 28.1964 15.3247 1.60701 -81.3947 -83.3566 98.1575
lowerback -1.39395 -0.844073 -8.23835
upperback -3.58566 -1.24205 -0.350733
thorax -2.78527 -0.434392 4.26542
lowerneck -0.919015 1.44472 -1.0466
upperneck 1.6075 1.91324 1.59534
head 0.614175 0.961639 0.672943
rclavicle 4.47266e-015 -9.93923e-015
rhumerus -57.854 -22.5119 -64.129
rradius 29.5483
rwrist 6.37594
rhand -15.3929 5.11396
rfingers 7.12502
rthumb 10.7857 -24.5891
lclavicle 4.47266e-015 -9.93923e-015
lhumerus -37.6079 26.5481 71.3102
lradius 20.8678
lwrist -33.6969
lhand -2.93199 24.6689
lfingers 7.12502
lthumb 22.7792 53.3439
rfemur -51.5043 14.1616 -9.07728
rtibia 12.078
rfoot -3.8327 -30.8915
rtoes -10.7105
lfemur -24.7869 -0.911671 -31.5158
ltibia 51.5422
lfoot -26.5154 23.3019
ltoes -12.8327
307
root 28.3043 15.302 1.63158 -83.0875 -83.3535 100.087
lowerback -1.2207 -0.750895 -8.22794
upperback -3.60372 -1.13394 -0.32205
thorax -2.91616 -0.373914 4.292
lowerneck -0.660924 1.41569 -1.34197
upperneck 0.826154 1.88305 1.81998
head 0.328825 0.944897 0.782448
rclavicle -6.01324e-015 -7.95139e-015
rhumerus -59.2227 -23.5996 -62.7256
rradius 27.8973
rwrist 8.4005
rhand -14.1406 5.28426
rfingers 7.12502
rthumb 11.9935 -24.3521
lclavicle -6.01324e-015 -7.95139e-015
lhumerus -40.4097 29.3865 68.4013
lradius 19.437
lwrist -36.8386
lhand -2.8945 24.68
lfingers 7.12502
lthumb 22.8152 53.3506
rfemur -52.4275 13.0045 -7.92653
rtibia 13.6528
rfoot -2.91431 -26.8893
rtoes -1.31873
lfemur -25.6448 -0.859467 -31.769
ltibia 51.7263
lfoot -26.2454 24.3301
ltoes -12.0267
308
root 28.4137 15.2841 1.65291 -85.1549 -83.3492 102.291
lowerback -0.974985 -0.657512 -8.1432
upperback -3.52517 -1.02708 -0.377793
thorax -2.98823 -0.321827 4.18853
lowerneck -0.514344 1.34732 -1.37711
upperneck -0.0700967 1.80103 1.88199
head 0.0326913 0.901911 0.800403
rclavicle -8.49804e-015 -1.78906e-014
rhumerus -60.5176 -24.662 -61.4976
rradius 26.4524
rwrist 10.5096
rhand -12.9979 5.4278
rfingers 7.12502
rthumb 13.0952 -24.1411
lclavicle -8.49804e-015 -1.78906e-014
lhumerus -43.2774 31.8166 65.1966
lradius 18.22
lwrist -39.4802
lhand -2.81032 24.807
lfingers 7.12502
lthumb 22.896 53.4676
rfemur -53.3203 11.787 -6.51295
rtibia 15.4802
rfoot -4.69352 -26.7064
rtoes -14.4775
lfemur -26.3741 -0.86858 -31.9709
ltibia 51.7908
lfoot -25.6939 25.6174
ltoes -11.9112
